<svg width="39" height="39" viewBox="0 0 39 39" fill="none" xmlns="http://www.w3.org/2000/svg">
<g clip-path="url(#clip0_163_2)">
<path d="M39 7.40511C37.5651 8.04211 36.023 8.47111 34.4045 8.66448C36.0571 7.67486 37.3262 6.10673 37.9226 4.23798C36.3772 5.15448 34.6645 5.82073 32.8412 6.17986C31.3836 4.62473 29.302 3.65298 27.001 3.65298C21.8351 3.65298 18.0391 8.47273 19.2059 13.4761C12.558 13.143 6.6625 9.95798 2.71538 5.11711C0.619125 8.71323 1.62825 13.4176 5.19025 15.7999C3.8805 15.7576 2.6455 15.3985 1.56812 14.7989C1.48037 18.5055 4.13725 21.9732 7.98525 22.7451C6.85913 23.0506 5.62575 23.1221 4.37125 22.8816C5.3885 26.0601 8.34275 28.3725 11.8462 28.4375C8.4825 31.0749 4.2445 32.253 0 31.7525C3.54087 34.0226 7.748 35.347 12.2655 35.347C27.1213 35.347 35.5144 22.8004 35.0074 11.5472C36.5706 10.4179 37.9275 9.00899 39 7.40511V7.40511Z" fill="#00A2F5"/>
</g>
<defs>
<clipPath id="clip0_163_2">
<rect width="39" height="39" fill="white"/>
</clipPath>
</defs>
</svg>
